<?xml version="1.0" encoding="utf-8"?>
<svg viewBox="6.4 65.778 61.966 66.933" xmlns="http://www.w3.org/2000/svg">
  <g transform="matrix(0.870053, 0, 0, 0.870053, -16.228107, 9.213781)" style="">
    <g transform="matrix(1, 0, 0, 1, -51.038692, -45.006847)">
      <g transform="matrix(1.149355, 0, 0, 1.149355, 18.651861, -10.589909)">
        <ellipse style="fill: rgb(51, 51, 51);" cx="94.67" cy="122.559" rx="12.54" ry="12.54"/>
        <path d="M 94.911 171.869 C 88.309 171.869 82.168 170.485 77.047 168.108 L 77.047 148.456 C 77.047 141.767 82.469 136.345 89.158 136.345 L 100.662 136.345 C 107.351 136.345 112.773 141.767 112.773 148.456 L 112.773 168.109 C 107.652 170.485 101.512 171.869 94.911 171.869 Z" style="fill: rgb(51, 51, 51);"/>
      </g>
      <ellipse style="fill: rgb(51, 51, 51);" cx="94.67" cy="122.559" rx="12.54" ry="12.54"/>
      <path d="M 94.911 171.869 C 88.309 171.869 82.168 170.485 77.047 168.108 L 77.047 148.456 C 77.047 141.767 82.469 136.345 89.158 136.345 L 100.662 136.345 C 105.811 136.345 110.209 139.557 111.961 144.087 C 110.468 144.892 109.121 145.857 108.033 146.945 C 104.911 150.067 102.796 155.248 102.61 159.962 L 102.61 171.224 C 100.142 171.646 97.564 171.869 94.911 171.869 Z" style="fill: rgb(51, 51, 51);"/>
    </g>
  </g>
</svg>