<?xml version="1.0" encoding="utf-8"?>
<svg viewBox="42.233 57.543 67.627 56.126" xmlns="http://www.w3.org/2000/svg">
  <path d="M 42.233 57.543 L 52.345 57.543 L 63.481 90.759 L 63.737 90.759 L 74.873 57.543 L 84.729 57.543 L 80.021 70.275 C 79.651 70.439 79.3 70.61 78.967 70.789 C 75.396 73.044 73.074 77.017 72.877 81.364 L 72.876 84.485 C 72.911 85.755 73.088 87.003 73.395 88.192 L 69.369 99.079 L 57.145 99.079 L 42.233 57.543 Z" style="fill: rgb(51, 51, 51); white-space: pre;"/>
  <path d="M 91.428 113.669 C 87.46 113.669 82.554 113.285 76.708 112.517 L 76.708 104.901 C 83.962 106.01 88.911 106.565 91.556 106.565 C 97.103 106.565 99.876 105.136 99.876 102.277 L 99.876 99.589 C 99.876 98.224 99.482 97.178 98.692 96.453 C 97.903 95.728 96.484 95.365 94.436 95.365 L 89.572 95.365 C 80.442 95.365 75.876 91.738 75.876 84.485 L 75.876 81.413 C 75.876 77.786 77.391 75.12 80.42 73.413 C 83.45 71.706 88.25 70.853 94.82 70.853 C 98.234 70.853 102.564 71.13 107.812 71.685 L 107.812 79.109 C 101.37 78.341 96.932 77.957 94.5 77.957 C 91.13 77.957 88.868 78.234 87.716 78.789 C 86.479 79.386 85.86 80.325 85.86 81.605 L 85.86 84.549 C 85.86 86.725 87.695 87.813 91.364 87.813 L 96.356 87.813 C 101.092 87.813 104.527 88.688 106.66 90.437 C 108.794 92.186 109.86 94.853 109.86 98.437 L 109.86 101.189 C 109.86 106.138 108.09 109.488 104.548 111.237 C 102.842 112.133 100.954 112.762 98.884 113.125 C 96.815 113.488 94.33 113.669 91.428 113.669 Z" style="fill: rgb(51, 51, 51); white-space: pre;"/>
</svg>